<svg xmlns="http://www.w3.org/2000/svg" viewBox="0 0 64 64">
  <rect width="64" height="64" rx="12" fill="#0a0a09"/>
  <path transform="translate(5.228 50.946) scale(0.05356 -0.05356)" d="M527 377Q542 396 618 365Q649 352 660.5 341.5Q672 331 672 317Q672 305 678.0 300.5Q684 296 689 270L695 245L677 215Q659 185 659.0 181.0Q659 177 642 149Q623 120 577 65Q563 48 563.0 44.5Q563 41 559.0 39.5Q555 38 543 20Q533 4 524.5 -4.0Q516 -12 485 -37Q455 -62 448.5 -59.0Q442 -56 423 -67Q407 -77 404.0 -75.5Q401 -74 399 -56Q398 -41 391 -30L378 -11Q346 40 341 40Q338 40 328.5 61.0Q319 82 310 93Q304 102 304.0 103.5Q304 105 310 107Q317 109 325 105Q382 77 401.0 72.5Q420 68 438 79Q453 89 487.5 124.5Q522 160 535 179Q546 196 561.0 234.0Q576 272 576 283Q576 289 554.0 308.0Q532 327 532.0 332.0Q532 337 517 345Q489 358 510 366Q521 370 527 377ZM333 741Q323 741 326.0 751.0Q329 761 329.5 761.0Q330 761 343.5 769.5Q357 778 363.5 781.5Q370 785 397 781Q421 779 446.5 764.5Q472 750 488 730Q502 712 508.5 707.0Q515 702 513 663L509 625L541 628Q573 631 597.5 633.0Q622 635 705.5 643.5Q789 652 820 653H849L874 628Q915 586 915 561Q915 555 906.0 538.5Q897 522 874 515L852 506L816 530Q789 548 777.5 551.5Q766 555 726 560Q672 566 653.5 560.5Q635 555 601.5 555.5Q568 556 553 556L538 555L557 539L576 521V487Q576 454 567.0 446.5Q558 439 533 412Q420 295 369 254Q330 223 326 218Q295 190 241 155L192 124Q157 101 125.5 83.5Q94 66 91.5 68.5Q89 71 99.0 81.0Q109 91 139 115Q170 141 252.0 223.5Q334 306 372 352Q408 392 429 423Q477 492 483 505Q488 514 496.0 528.5Q504 543 502.5 546.5Q501 550 468.5 546.0Q436 542 419 536Q398 529 388.5 529.0Q379 529 354 522L302 508Q217 484 183 461Q159 446 152.5 444.5Q146 443 132 454Q116 467 108.0 469.5Q100 472 100.0 481.0Q100 490 93.5 492.0Q87 494 85 503Q83 509 93.0 518.0Q103 527 116 531Q128 535 142.0 541.0Q156 547 188 555Q264 575 320 592Q357 604 373 606Q386 609 388.0 611.0Q390 613 388 628Q380 681 373 690Q369 694 369 700Q369 709 354.0 725.0Q339 741 333 741Z" fill="#f2f0ea"/>
</svg>
